<?xml version="1.0" standalone="no"?><!DOCTYPE svg PUBLIC "-//W3C//DTD SVG 1.1//EN" "http://www.w3.org/Graphics/SVG/1.1/DTD/svg11.dtd"><svg t="1721470532917" class="icon" viewBox="0 0 1024 1024" version="1.1" xmlns="http://www.w3.org/2000/svg" p-id="3029" xmlns:xlink="http://www.w3.org/1999/xlink" width="200" height="200"><path d="M909.6 702.4l1.6-387.2c0-23.2-12-44-32-56l-332-192c-20-11.2-44-11.2-64 0L148 263.2c-20 11.2-32 32-32 55.2l-1.6 387.2c0 23.2 12 44 32 56l332 192c20 11.2 44 11.2 64 0l334.4-195.2c20.8-12 32.8-32.8 32.8-56z m-398.4 195.2l-332-192 1.6-387.2 334.4-195.2 332 192-1.6 387.2-334.4 195.2z" fill="#707070" p-id="3030"></path><path d="M517.6 244.8l221.6 128c15.2 8.8 35.2 3.2 44-12 8.8-15.2 3.2-35.2-12-44l-221.6-128c-15.2-8.8-35.2-3.2-44 12-8.8 16-4 35.2 12 44zM277.6 404.8c0-12-6.4-22.4-16-28-4.8-2.4-10.4-4-16-4-17.6 0-32 14.4-32 32v256c0 12 6.4 22.4 16 28 4.8 2.4 10.4 4 16 4 17.6 0 32-14.4 32-32v-256zM488 832.8c3.2 4.8 7.2 8.8 12 12 9.6 5.6 21.6 5.6 32 0l221.6-128c15.2-8.8 20.8-28.8 12-44-3.2-4.8-7.2-8.8-12-12-9.6-5.6-21.6-5.6-32 0l-221.6 128c-15.2 9.6-20.8 28.8-12 44z" fill="#707070" p-id="3031"></path></svg>